<?xml version="1.0" encoding="utf-8"?>
<!-- Svg Vector Icons : http://www.onlinewebfonts.com/icon -->
<!DOCTYPE svg PUBLIC "-//W3C//DTD SVG 1.1//EN" "http://www.w3.org/Graphics/SVG/1.1/DTD/svg11.dtd">
<svg version="1.1" xmlns="http://www.w3.org/2000/svg" xmlns:xlink="http://www.w3.org/1999/xlink" x="0px" y="0px" viewBox="0 0 1000 1000" enable-background="new 0 0 1000 1000" xml:space="preserve">
<metadata> Svg Vector Icons : http://www.onlinewebfonts.com/icon </metadata>
<g><g transform="translate(0.000000,511.000000) scale(0.100000,-0.100000)"><path d="M499.7,2367.6V806.9l-76.6-197.3C151.2-81.7,45.9-809.4,126.3-1420.3c30.6-233.6,105.3-534.3,155.1-632c24.9-49.8,42.1-220.2,78.5-829.2c38.3-635.8,51.7-769.8,76.6-789c88.1-67,360-38.3,654.9,68.9c132.1,47.9,159,51.7,262.4,36.4c187.7-28.7,762.2-23,976.7,11.5c490.2,76.6,978.6,248.9,1367.3,480.6c74.7,44,147.5,68.9,248.9,84.3c78.5,11.5,187.7,34.5,243.2,49.8c88.1,26.8,118.7,26.8,277.7,0c216.4-34.5,365.8-36.4,459.6-1.9c61.3,21.1,84.3,21.1,143.6,0c95.7-34.5,252.8-32.6,451.9,1.9c153.2,26.8,174.3,26.8,323.6-7.7c88.1-21.1,203-44,254.7-51.7c53.6-5.7,141.7-40.2,201.1-74.7c390.7-233.6,869.4-402.1,1359.6-480.6c222.1-34.5,789-42.1,984.3-11.5c103.4,15.3,130.2,11.5,260.4-36.4c294.9-107.2,570.6-136,656.8-68.9c23,19.1,38.3,170.4,76.6,789c36.4,612.8,51.7,777.5,78.5,827.3c49.8,99.6,124.5,400.2,155.1,633.9c80.4,610.9-24.9,1338.6-296.8,2029.9l-76.6,197.3v1560.7v1558.8h-258.5h-258.5V2428.9V929.4l-204.9-63.2c-1126-350.4-2311.4-1286.9-3203.8-2531.6c-99.6-137.9-195.4-270-210.6-291.1c-19.2-24.9-84.3-49.8-197.3-74.7c-164.7-36.4-168.5-36.4-333.2,0c-113,24.9-178.1,49.8-197.2,74.7c-15.3,21.1-111.1,153.2-210.6,293C3535-422.6,2347.7,515.8,1221.7,866.2l-204.9,63.2v1499.4v1497.5H758.3H499.7V2367.6z"/></g></g>
</svg>