<?xml version="1.0" encoding="utf-8"?>
<!-- Svg Vector Icons : http://www.onlinewebfonts.com/icon -->
<!DOCTYPE svg PUBLIC "-//W3C//DTD SVG 1.1//EN" "http://www.w3.org/Graphics/SVG/1.1/DTD/svg11.dtd">
<svg version="1.1" xmlns="http://www.w3.org/2000/svg" xmlns:xlink="http://www.w3.org/1999/xlink" x="0px" y="0px" viewBox="0 0 1000 1000" enable-background="new 0 0 1000 1000" xml:space="preserve">
<metadata> Svg Vector Icons : http://www.onlinewebfonts.com/icon </metadata>
<g><path d="M487.9,429.9"/><path d="M360.7,595H220.6V454.9h140.1V595z M572.4,454.9H432.3V595h140.1V454.9z M784.1,454.9H644V595h140.1V454.9z M360.7,659.5H220.6v140.1h140.1V659.5z M572.4,659.5H432.3v140.1h140.1V659.5z M784.1,659.5H644v140.1h140.1V659.5z M836.3,172.1c0,23.9-19.4,43.2-43.2,43.2c-23.9,0-43.2-19.4-43.2-43.2V63.3c0-23.9,19.4-43.2,43.2-43.2c23.9,0,43.2,19.4,43.2,43.2V172.1z M252.4,63.1c0-23.9-19.4-43.2-43.2-43.2c-23.9,0-43.2,19.4-43.2,43.2v108.8c0,23.9,19.4,43.2,43.2,43.2c23.9,0,43.2-19.4,43.2-43.2V63.1z M888.6,126.2v44.3c0,52.6-42.8,95.5-95.5,95.5c-52.6,0-95.5-42.8-95.5-95.5v-44.3h-393v44.1c0,52.6-42.8,95.5-95.5,95.5c-52.6,0-95.5-42.8-95.5-95.5v-44.1H10v853.9h980V126.2H888.6z M894.9,885H105.1V355.8h789.7V885z"/></g>
</svg>